Run_20002
nRows=4
nColumns=164

# SIMM Motion File Header:
name Run_20002
datacolumns 164
datarows 4
otherdata 1
range 4.10000000 4.13000000
endheader
time	pelvis_tilt	pelvis_list	pelvis_rotation	pelvis_tx	pelvis_ty	pelvis_tz	hip_flexion_r	hip_adduction_r	hip_rotation_r	knee_angle_r	ankle_angle_r	hip_flexion_l	hip_adduction_l	hip_rotation_l	knee_angle_l	ankle_angle_l	lumbar_extension	lumbar_bending	lumbar_rotation	arm_flex_r	arm_add_r	arm_rot_r	elbow_flex_r	pro_sup_r	arm_flex_l	arm_add_l	arm_rot_l	elbow_flex_l	pro_sup_l	subtalar_angle_r	mtp_angle_r	subtalar_angle_l	mtp_angle_l	wrist_flex_r	wrist_dev_r	wrist_flex_l	wrist_dev_l	LASI_tx	LASI_ty	LASI_tz	RASI_tx	RASI_ty	RASI_tz	LPSI_tx	LPSI_ty	LPSI_tz	RPSI_tx	RPSI_ty	RPSI_tz	RTH1_tx	RTH1_ty	RTH1_tz	RTH2_tx	RTH2_ty	RTH2_tz	RTH3_tx	RTH3_ty	RTH3_tz	LTH1_tx	LTH1_ty	LTH1_tz	LTH2_tx	LTH2_ty	LTH2_tz	LTH3_tx	LTH3_ty	LTH3_tz	RTB1_tx	RTB1_ty	RTB1_tz	RTB2_tx	RTB2_ty	RTB2_tz	RTB3_tx	RTB3_ty	RTB3_tz	LTB1_tx	LTB1_ty	LTB1_tz	LTB2_tx	LTB2_ty	LTB2_tz	LTB3_tx	LTB3_ty	LTB3_tz	RCAL_tx	RCAL_ty	RCAL_tz	RTOE_tx	RTOE_ty	RTOE_tz	RMT5_tx	RMT5_ty	RMT5_tz	LCAL_tx	LCAL_ty	LCAL_tz	LTOE_tx	LTOE_ty	LTOE_tz	LMT5_tx	LMT5_ty	LMT5_tz	LACR_tx	LACR_ty	LACR_tz	RACR_tx	RACR_ty	RACR_tz	CLAV_tx	CLAV_ty	CLAV_tz	C7_tx	C7_ty	C7_tz	RUA1_tx	RUA1_ty	RUA1_tz	RUA2_tx	RUA2_ty	RUA2_tz	RUA3_tx	RUA3_ty	RUA3_tz	RLEL_tx	RLEL_ty	RLEL_tz	RMEL_tx	RMEL_ty	RMEL_tz	LUA1_tx	LUA1_ty	LUA1_tz	LUA2_tx	LUA2_ty	LUA2_tz	LUA3_tx	LUA3_ty	LUA3_tz	LLEL_tx	LLEL_ty	LLEL_tz	LMEL_tx	LMEL_ty	LMEL_tz	RFAsuperior_tx	RFAsuperior_ty	RFAsuperior_tz	RFAradius_tx	RFAradius_ty	RFAradius_tz	RFAulna_tx	RFAulna_ty	RFAulna_tz	LFAsuperior_tx	LFAsuperior_ty	LFAsuperior_tz	LFAradius_tx	LFAradius_ty	LFAradius_tz	LFAulna_tx	LFAulna_ty	LFAulna_tz
      4.10000000	     -4.58281448	     -1.66399349	      0.48646701	      0.98033257	      0.95924760	     -0.30607821	     27.11472798	      3.38251074	    -12.20096660	    -30.53761296	      7.37513686	      0.47149061	      0.69259901	      1.97576382	    -55.44105376	    -17.47649355	     -7.06468230	      2.32094575	     -4.20883520	    -38.80165018	    -16.96194021	     -3.51520054	    102.93298687	     84.67003016	    -10.93781358	    -25.35118637	      4.31001062	    117.51231189	    113.82773824	      0.00000000	      0.00000000	      0.00000000	      0.00000000	      0.00000000	      0.00000000	      0.00000000	      0.00000000	      0.98881001	      0.97154243	     -0.43007058	      0.98811277	      0.98552115	     -0.18906068	      0.82649280	      1.02137308	     -0.36013235	      0.81812630	      1.02073432	     -0.26025263	      0.97766949	      0.75247088	     -0.12938797	      1.05914316	      0.68834808	     -0.14676406	      1.02851986	      0.58589948	     -0.16816105	      0.92981191	      0.77139724	     -0.47125669	      0.96121373	      0.65622418	     -0.45219803	      0.88125697	      0.56008398	     -0.44362311	      1.09168350	      0.38084683	     -0.24168608	      1.05180758	      0.30326064	     -0.19788695	      1.06460246	      0.19764519	     -0.26773097	      0.80192120	      0.37627710	     -0.38509413	      0.70607257	      0.37430872	     -0.44465718	      0.63116957	      0.28705407	     -0.38105804	      0.95497058	      0.10569118	     -0.29755800	      1.17617390	      0.07089350	     -0.29275875	      1.12086356	      0.05092841	     -0.19589097	      0.49617512	      0.31941102	     -0.37461910	      0.53417120	      0.10568968	     -0.34845208	      0.48633310	      0.12913930	     -0.44515175	      0.99141896	      1.46249136	     -0.45161661	      0.97930750	      1.45286850	     -0.15574782	      1.06520559	      1.37994464	     -0.28450379	      0.93204334	      1.48668817	     -0.30301578	      0.88858459	      1.37729884	     -0.06374108	      0.81087493	      1.34906148	     -0.10728042	      0.80628428	      1.28248412	     -0.03984447	      0.74997897	      1.23359494	     -0.02344795	      0.72619759	      1.22731064	     -0.09758935	      0.93962332	      1.35911094	     -0.54835986	      0.87854527	      1.30257089	     -0.53317920	      0.92675569	      1.26796245	     -0.59774842	      0.90547759	      1.18721477	     -0.63347674	      0.86916817	      1.15846771	     -0.57351082	      0.84078419	      1.16146079	     -0.02579399	      0.94517228	      1.10247640	     -0.09917825	      0.89535359	      1.05352224	     -0.08241241	      1.01124542	      1.19388795	     -0.57819015	      1.09827792	      1.17224416	     -0.46268915	      1.11809359	      1.12803091	     -0.50766668
      4.11000000	     -4.44382560	     -2.23802454	     -0.11121142	      0.97860858	      0.95303689	     -0.30431888	     28.26499349	      4.16751296	    -10.91945189	    -35.43690104	     10.27184483	      2.66536650	     -0.10177663	      1.30438862	    -60.51532124	    -15.61822866	     -7.32861504	      3.00739453	     -2.76336586	    -37.66840430	    -17.41804543	     -3.52222942	    102.94399591	     84.41543650	    -11.30385397	    -25.18932713	      4.23243775	    115.89853958	    114.10372496	      0.00000000	      0.00000000	      0.00000000	      0.00000000	      0.00000000	      0.00000000	      0.00000000	      0.00000000	      0.98872807	      0.96545556	     -0.42854577	      0.98751263	      0.97929110	     -0.18740800	      0.82486778	      1.01350618	     -0.35989798	      0.81528389	      1.01416201	     -0.26203094	      0.97838873	      0.75029053	     -0.12815589	      1.06170886	      0.68872664	     -0.14629815	      1.03323345	      0.58523115	     -0.16601996	      0.93461273	      0.76275422	     -0.46713637	      0.96885721	      0.65088061	     -0.45187447	      0.89301889	      0.55253008	     -0.44269322	      1.08903263	      0.37886605	     -0.24280300	      1.04893192	      0.30304952	     -0.19779696	      1.05183890	      0.19731833	     -0.26862463	      0.81478916	      0.37228527	     -0.38514640	      0.71885914	      0.37366423	     -0.44526888	      0.64018342	      0.29023623	     -0.38133913	      0.93562694	      0.10652222	     -0.29696709	      1.15740941	      0.07055850	     -0.29248597	      1.10110082	      0.05133445	     -0.19528110	      0.50574877	      0.32770619	     -0.37293037	      0.53952847	      0.11246569	     -0.35378945	      0.49079158	      0.14007464	     -0.44905350	      0.98850011	      1.45781327	     -0.45218840	      0.97932839	      1.44702417	     -0.15391714	      1.06510094	      1.37448623	     -0.28469091	      0.93182424	      1.48225176	     -0.30053090	      0.89111509	      1.36781710	     -0.06152569	      0.81282062	      1.33860336	     -0.10289321	      0.81066878	      1.27164156	     -0.03600063	      0.75601278	      1.22238660	     -0.01816274	      0.73017236	      1.21516325	     -0.09164315	      0.93442213	      1.35304117	     -0.54690518	      0.87369936	      1.29632031	     -0.53065004	      0.92060473	      1.26257553	     -0.59689599	      0.89794476	      1.18298680	     -0.63222386	      0.86305525	      1.15437781	     -0.57221266	      0.84795605	      1.15159841	     -0.02199789	      0.95218238	      1.09476509	     -0.09733810	      0.90371207	      1.04493805	     -0.08001802	      1.00515725	      1.18569874	     -0.57904274	      1.09372189	      1.15917754	     -0.46585293	      1.11104540	      1.11527521	     -0.51236121
      4.12000000	     -4.40569717	     -2.61790700	     -0.54097861	      0.97682890	      0.94719969	     -0.30271198	     28.93377347	      4.74262415	     -9.84561200	    -39.27297079	     12.64281947	      5.10118341	     -0.71055966	      0.87178028	    -65.39322622	    -13.35442845	     -7.48510171	      3.44869813	     -1.57965732	    -36.16448086	    -17.91760332	     -3.29245220	    102.49742477	     84.23737590	    -11.94311076	    -25.00111784	      3.98024021	    114.31600343	    114.59285907	      0.00000000	      0.00000000	      0.00000000	      0.00000000	      0.00000000	      0.00000000	      0.00000000	      0.00000000	      0.98801462	      0.95970499	     -0.42711109	      0.98626070	      0.97341088	     -0.18585265	      0.82363822	      1.00676713	     -0.35917605	      0.81219339	      1.00881176	     -0.26348047	      0.97891322	      0.74743969	     -0.12732129	      1.06329256	      0.68799034	     -0.14582651	      1.03560872	      0.58284494	     -0.16451755	      0.93904047	      0.75610924	     -0.46432266	      0.97680421	      0.64728074	     -0.45131360	      0.90551950	      0.54649753	     -0.44186296	      1.08414647	      0.37510482	     -0.24225506	      1.04160061	      0.30123124	     -0.19691565	      1.03752002	      0.19547498	     -0.26762429	      0.82929873	      0.36939069	     -0.38493297	      0.73317009	      0.37408083	     -0.44544939	      0.65163388	      0.29373187	     -0.38121511	      0.91601642	      0.10704654	     -0.29595902	      1.13819103	      0.07006465	     -0.29142566	      1.08113645	      0.05069502	     -0.19434877	      0.51669425	      0.33514112	     -0.37047722	      0.54862639	      0.11895846	     -0.35907006	      0.50022417	      0.15067079	     -0.45326109	      0.98586675	      1.45323646	     -0.45294291	      0.97889328	      1.44164234	     -0.15281871	      1.06465117	      1.36966263	     -0.28512870	      0.93202721	      1.47837638	     -0.29891073	      0.89412911	      1.35815376	     -0.05940501	      0.81514819	      1.32798345	     -0.09804175	      0.81593843	      1.26045112	     -0.03221735	      0.76315004	      1.21075129	     -0.01274313	      0.73546439	      1.20240324	     -0.08556657	      0.92953603	      1.34758587	     -0.54562842	      0.86882076	      1.29054524	     -0.52768089	      0.91406756	      1.25767792	     -0.59558869	      0.88979699	      1.17919779	     -0.63064625	      0.85614799	      1.15092304	     -0.57046268	      0.85605730	      1.14117607	     -0.01830434	      0.96003226	      1.08659889	     -0.09558662	      0.91272807	      1.03582750	     -0.07735616	      0.99836627	      1.17795859	     -0.57978947	      1.08783315	      1.14619182	     -0.46916123	      1.10276955	      1.10258692	     -0.51728075
      4.13000000	     -4.46661443	     -2.86245575	     -0.73968770	      0.97499052	      0.94191773	     -0.30132982	     29.03673870	      5.09325040	     -9.32764796	    -41.87473659	     14.80191241	      7.79791182	     -1.17810405	      0.70278251	    -69.98239174	    -11.18989633	     -7.55275936	      3.71587797	     -0.76308834	    -34.24823522	    -18.47325593	     -2.81037284	    101.62271002	     84.24112195	    -12.90881764	    -24.77407943	      3.50686117	    112.98846968	    115.21018659	      0.00000000	      0.00000000	      0.00000000	      0.00000000	      0.00000000	      0.00000000	      0.00000000	      0.00000000	      0.98681464	      0.95451118	     -0.42606478	      0.98452899	      0.96808225	     -0.18469007	      0.82269078	      1.00125308	     -0.35818250	      0.80909855	      1.00473854	     -0.26324160	      0.97828256	      0.74385796	     -0.12671062	      1.06214313	      0.68442868	     -0.14461001	      1.03392137	      0.57838815	     -0.16380084	      0.94330994	      0.75169569	     -0.46352959	      0.98557816	      0.64518365	     -0.45084196	      0.91883872	      0.54215343	     -0.44129793	      1.07691722	      0.36961946	     -0.24042221	      1.03025402	      0.29766925	     -0.19594866	      1.02197720	      0.19227240	     -0.26621722	      0.84529013	      0.36728677	     -0.38456883	      0.74885967	      0.37516854	     -0.44495147	      0.66528199	      0.29700755	     -0.38069551	      0.89629024	      0.10726150	     -0.29512039	      1.11868616	      0.06938972	     -0.29051912	      1.06129669	      0.04992261	     -0.19365368	      0.52938226	      0.34137249	     -0.36765744	      0.56052079	      0.12467067	     -0.36372284	      0.51372615	      0.16023786	     -0.45737703	      0.98406746	      1.44867157	     -0.45356948	      0.97820256	      1.43673144	     -0.15243769	      1.06396018	      1.36519003	     -0.28564151	      0.93215751	      1.47458042	     -0.29870174	      0.89758341	      1.34876395	     -0.05765401	      0.81777387	      1.31722850	     -0.09305615	      0.82233097	      1.24937233	     -0.02846475	      0.77155604	      1.19895096	     -0.00728708	      0.74223063	      1.18941705	     -0.07934342	      0.92530882	      1.34314406	     -0.54468994	      0.86424660	      1.28601093	     -0.52430111	      0.90723405	      1.25368623	     -0.59397565	      0.88126371	      1.17607471	     -0.62885789	      0.84803038	      1.14822553	     -0.56817701	      0.86542161	      1.13072965	     -0.01498302	      0.96885953	      1.07828466	     -0.09401748	      0.92252565	      1.02654286	     -0.07437478	      0.99097259	      1.17106575	     -0.58025903	      1.08083650	      1.13421723	     -0.47225518	      1.09327584	      1.09096313	     -0.52205984
